# xmcd
#
# Track frame offsets:
#	150
#	15742
#	29347
#	45750
#	55662
#	66142
#	78147
#	89970
#	102402
#	114940
#	127612
#	143642
#
# Disc length: 2106 seconds
#
# Revision: 0
# Processed by: cddbd v1.4PL0 Copyright (c) Steve Scherf et al.
# Submitted via: dBpowerAMP V4.0
#
DISCID=8c08380c
DTITLE=Larry Gatlin and The Gatlin Brothers - 36 All-Time Favorites Disk 1
DYEAR=1900
DGENRE=Country
TTITLE0=New York City
TTITLE1=Sweet Becky Walker
TTITLE2=Bitter They Are The Harder They Fall
TTITLE3=Delta Dirt
TTITLE4=Let's Turn The Lights On
TTITLE5=Broken Lady
TTITLE6=Warm and Tender
TTITLE7=Statues Without Hearts
TTITLE8=Anything But Leavin'
TTITLE9=I Don't Wanna Cry
TTITLE10=Love Is Just A Game
TTITLE11=I Just Wish You Were Someone I Love
EXTD=
EXTT0=
EXTT1=
EXTT2=
EXTT3=
EXTT4=
EXTT5=
EXTT6=
EXTT7=
EXTT8=
EXTT9=
EXTT10=
EXTT11=
PLAYORDER=
